<?xml version="1.0" encoding="UTF-8" standalone="no"?>
<!-- Created with Inkscape (http://www.inkscape.org/) -->

<svg
   xmlns:dc="http://purl.org/dc/elements/1.1/"
   xmlns:cc="http://creativecommons.org/ns#"
   xmlns:rdf="http://www.w3.org/1999/02/22-rdf-syntax-ns#"
   xmlns:svg="http://www.w3.org/2000/svg"
   xmlns="http://www.w3.org/2000/svg"
   xmlns:xlink="http://www.w3.org/1999/xlink"
   xmlns:sodipodi="http://sodipodi.sourceforge.net/DTD/sodipodi-0.dtd"
   xmlns:inkscape="http://www.inkscape.org/namespaces/inkscape"
   height="48"
   id="svg1428"
   inkscape:version="0.91 r13725"
   sodipodi:docname="imagedownloader.svg"
   sodipodi:version="0.32"
   width="48"
   version="1.1">
  <metadata
     id="metadata3">
    <rdf:RDF>
      <cc:Work
         rdf:about="">
        <dc:title>Etiquette Icons</dc:title>
        <dc:description />
        <dc:subject>
          <rdf:Bag>
            <rdf:li>hash</rdf:li>
            <rdf:li />
            <rdf:li>hardware</rdf:li>
            <rdf:li>computer</rdf:li>
            <rdf:li>icons</rdf:li>
            <rdf:li>device</rdf:li>
          </rdf:Bag>
        </dc:subject>
        <dc:publisher>
          <cc:Agent
             rdf:about="http://www.openclipart.org">
            <dc:title>Andy Fitzsimon</dc:title>
          </cc:Agent>
        </dc:publisher>
        <dc:creator>
          <cc:Agent>
            <dc:title>Andy Fitzsimon</dc:title>
          </cc:Agent>
        </dc:creator>
        <dc:rights>
          <cc:Agent>
            <dc:title>Andy Fitzsimon</dc:title>
          </cc:Agent>
        </dc:rights>
        <dc:date />
        <dc:format>image/svg+xml</dc:format>
        <dc:type
           rdf:resource="http://purl.org/dc/dcmitype/StillImage" />
        <cc:license
           rdf:resource="http://web.resource.org/cc/PublicDomain" />
        <dc:language>en</dc:language>
      </cc:Work>
      <cc:License
         rdf:about="http://web.resource.org/cc/PublicDomain">
        <cc:permits
           rdf:resource="http://web.resource.org/cc/Reproduction" />
        <cc:permits
           rdf:resource="http://web.resource.org/cc/Distribution" />
        <cc:permits
           rdf:resource="http://web.resource.org/cc/DerivativeWorks" />
      </cc:License>
    </rdf:RDF>
  </metadata>
  <defs
     id="defs1430">
    <linearGradient
       id="linearGradient1551">
      <stop
         id="stop1552"
         offset="0.0000000"
         style="stop-color:#ffffff;stop-opacity:0.0000000;" />
      <stop
         id="stop1553"
         offset="1.0000000"
         style="stop-color:#ffffff;stop-opacity:1.0000000;" />
    </linearGradient>
    <linearGradient
       id="linearGradient1546">
      <stop
         id="stop1547"
         offset="0.0000000"
         style="stop-color:#000;stop-opacity:1;" />
      <stop
         id="stop1548"
         offset="1.0000000"
         style="stop-color:#9a9a9a;stop-opacity:1.0000000;" />
    </linearGradient>
    <linearGradient
       id="linearGradient1502">
      <stop
         id="stop1503"
         offset="0.0000000"
         style="stop-color:#000000;stop-opacity:0.0000000;" />
      <stop
         id="stop1506"
         offset="1.0000000"
         style="stop-color:#000000;stop-opacity:0.28125000;" />
    </linearGradient>
    <linearGradient
       id="linearGradient1494">
      <stop
         id="stop1495"
         offset="0.0000000"
         style="stop-color:#9d8f6a;stop-opacity:1.0000000;" />
      <stop
         id="stop1496"
         offset="0.49619800"
         style="stop-color:#ffffff;stop-opacity:1.0000000;" />
      <stop
         id="stop1498"
         offset="0.52539647"
         style="stop-color:#bfb5a5;stop-opacity:1.0000000;" />
      <stop
         id="stop1497"
         offset="1.0000000"
         style="stop-color:#f7f7f7;stop-opacity:1.0000000;" />
    </linearGradient>
    <linearGradient
       id="linearGradient1461">
      <stop
         id="stop1462"
         offset="0.0000000"
         style="stop-color:#ffffff;stop-opacity:0.0000000;" />
      <stop
         id="stop1464"
         offset="0.50000000"
         style="stop-color:#ffffff;stop-opacity:1.0000000;" />
      <stop
         id="stop1463"
         offset="1.0000000"
         style="stop-color:#ffffff;stop-opacity:0.0000000;" />
    </linearGradient>
    <linearGradient
       id="linearGradient1454">
      <stop
         id="stop1455"
         offset="0"
         style="stop-color:#000;stop-opacity:1;" />
      <stop
         id="stop1456"
         offset="1"
         style="stop-color:#fff;stop-opacity:1;" />
    </linearGradient>
    <linearGradient
       id="linearGradient1457"
       x1="28.813946"
       x2="10.582993"
       xlink:href="#linearGradient1551"
       y1="221.79578"
       y2="235.65099"
       gradientTransform="matrix(1.7094086,0,0,0.58499763,-9.2656192,-103.38346)"
       gradientUnits="userSpaceOnUse" />
    <linearGradient
       id="linearGradient1458"
       x1="55.601124"
       x2="40.876816"
       xlink:href="#linearGradient1454"
       y1="-30.810305"
       y2="218.58856"
       gradientTransform="matrix(1.0821338,0,0,0.92410015,-9.2656192,-103.38346)"
       gradientUnits="userSpaceOnUse" />
    <linearGradient
       id="linearGradient1459"
       xlink:href="#linearGradient1502" />
    <linearGradient
       id="linearGradient1460"
       x1="55.239422"
       x2="25.40143"
       xlink:href="#linearGradient1461"
       y1="97.356407"
       y2="29.790384"
       gradientTransform="matrix(0.94258534,0,0,1.0609119,-9.2656192,-103.38346)"
       gradientUnits="userSpaceOnUse" />
    <linearGradient
       id="linearGradient1465"
       x1="66.679367"
       x2="66.679367"
       xlink:href="#linearGradient1494"
       y1="28.158081"
       y2="107.53253"
       gradientTransform="matrix(1.1618002,0,0,0.86073318,-9.2656192,-103.38346)"
       gradientUnits="userSpaceOnUse" />
    <linearGradient
       id="linearGradient1466"
       x1="47.242912"
       x2="109.62949"
       xlink:href="#linearGradient1461"
       y1="77.450203"
       y2="76.102692"
       gradientTransform="matrix(1.1618002,0,0,0.86073318,-9.2656192,-103.38346)"
       gradientUnits="userSpaceOnUse" />
    <linearGradient
       id="linearGradient1467"
       x1="55.045113"
       x2="109.27901"
       xlink:href="#linearGradient1461"
       y1="85.877014"
       y2="88.11335"
       gradientTransform="matrix(1.1625356,0,0,0.86018868,-9.2656192,-103.38346)"
       gradientUnits="userSpaceOnUse" />
    <linearGradient
       id="linearGradient1468"
       x1="48.88829"
       x2="99.629562"
       xlink:href="#linearGradient1461"
       y1="90.157753"
       y2="86.570915"
       gradientTransform="matrix(1.1621146,0,0,0.86050035,-9.2656192,-103.38346)"
       gradientUnits="userSpaceOnUse" />
    <linearGradient
       id="linearGradient1469"
       x1="71.901497"
       x2="85.293274"
       xlink:href="#linearGradient1494"
       y1="69.209007"
       y2="102.17883"
       gradientTransform="matrix(1.1795991,0,0,0.84774561,-9.2656192,-103.38346)"
       gradientUnits="userSpaceOnUse" />
    <linearGradient
       id="linearGradient1471"
       x1="64.116882"
       x2="37.547989"
       xlink:href="#linearGradient1546"
       y1="47.803505"
       y2="140.37704"
       gradientTransform="matrix(1.3294867,0,0,0.75217,-9.2656192,-103.38346)"
       gradientUnits="userSpaceOnUse" />
    <linearGradient
       id="linearGradient1500"
       x1="53.647789"
       x2="53.647789"
       xlink:href="#linearGradient1494"
       y1="101.89593"
       y2="160.91232"
       gradientTransform="matrix(1.2892437,0,0,0.77564852,-9.2656192,-103.38346)"
       gradientUnits="userSpaceOnUse" />
    <linearGradient
       id="linearGradient1501"
       x1="69.363586"
       x2="71.684402"
       xlink:href="#linearGradient1494"
       y1="56.763401"
       y2="101.294"
       gradientTransform="matrix(1.2039799,0,0,0.83057864,-9.2656192,-103.38346)"
       gradientUnits="userSpaceOnUse" />
    <linearGradient
       id="linearGradient1507"
       x1="182.83167"
       x2="205.01575"
       xlink:href="#linearGradient1502"
       y1="175.80452"
       y2="309.7991"
       gradientTransform="scale(1.0229615,0.97755389)"
       gradientUnits="userSpaceOnUse" />
    <linearGradient
       id="linearGradient1550"
       x1="57.724483"
       x2="55.957409"
       xlink:href="#linearGradient1502"
       y1="184.34286"
       y2="144.17274"
       gradientTransform="matrix(1.6363278,0,0,0.61112449,-9.2656192,-103.38346)"
       gradientUnits="userSpaceOnUse" />
    <linearGradient
       id="linearGradient1555"
       x1="83.123482"
       x2="77.120087"
       xlink:href="#linearGradient1494"
       y1="92.632271"
       y2="56.941833"
       gradientTransform="matrix(1.1621146,0,0,0.86050035,-9.2656192,-103.38346)"
       gradientUnits="userSpaceOnUse" />
    <linearGradient
       id="linearGradient1556"
       xlink:href="#linearGradient1551" />
    <radialGradient
       inkscape:collect="always"
       xlink:href="#linearGradient8662"
       id="radialGradient1444"
       gradientUnits="userSpaceOnUse"
       gradientTransform="matrix(1,0,0,0.536723,0,16.87306)"
       cx="24.837126"
       cy="36.421127"
       fx="24.837126"
       fy="36.421127"
       r="15.644737" />
    <linearGradient
       id="linearGradient8662"
       inkscape:collect="always">
      <stop
         id="stop8664"
         offset="0"
         style="stop-color:#000000;stop-opacity:1;" />
      <stop
         id="stop8666"
         offset="1"
         style="stop-color:#000000;stop-opacity:0;" />
    </linearGradient>
    <radialGradient
       inkscape:collect="always"
       xlink:href="#linearGradient1442"
       id="radialGradient1469"
       gradientUnits="userSpaceOnUse"
       gradientTransform="matrix(0,-0.843022,1.020168,0,0.606436,42.58614)"
       cx="35.292667"
       cy="20.494493"
       fx="35.292667"
       fy="20.494493"
       r="16.9562" />
    <linearGradient
       id="linearGradient1442">
      <stop
         id="stop1444"
         offset="0"
         style="stop-color:#73d216" />
      <stop
         id="stop1446"
         offset="1.0000000"
         style="stop-color:#4e9a06" />
    </linearGradient>
    <radialGradient
       inkscape:collect="always"
       xlink:href="#linearGradient8650"
       id="radialGradient1471"
       gradientUnits="userSpaceOnUse"
       gradientTransform="matrix(0,-2.046729,-1.55761,0,44.11559,66.93275)"
       cx="15.987216"
       cy="1.5350308"
       fx="15.987216"
       fy="1.5350308"
       r="17.171415" />
    <linearGradient
       id="linearGradient8650"
       inkscape:collect="always">
      <stop
         id="stop8652"
         offset="0"
         style="stop-color:#ffffff;stop-opacity:1;" />
      <stop
         id="stop8654"
         offset="1"
         style="stop-color:#ffffff;stop-opacity:0;" />
    </linearGradient>
    <radialGradient
       r="15.644737"
       fy="36.421127"
       fx="24.837126"
       cy="36.421127"
       cx="24.837126"
       gradientTransform="matrix(1,0,0,0.536723,0,16.87306)"
       gradientUnits="userSpaceOnUse"
       id="radialGradient3026"
       xlink:href="#linearGradient8662"
       inkscape:collect="always" />
    <radialGradient
       inkscape:collect="always"
       xlink:href="#linearGradient8662"
       id="radialGradient3092"
       gradientUnits="userSpaceOnUse"
       gradientTransform="matrix(1,0,0,0.536723,0,16.87306)"
       cx="24.837126"
       cy="36.421127"
       fx="24.837126"
       fy="36.421127"
       r="15.644737" />
    <radialGradient
       inkscape:collect="always"
       xlink:href="#linearGradient1442"
       id="radialGradient3094"
       gradientUnits="userSpaceOnUse"
       gradientTransform="matrix(0,-0.843022,1.020168,0,0.606436,42.58614)"
       cx="35.292667"
       cy="20.494493"
       fx="35.292667"
       fy="20.494493"
       r="16.9562" />
    <radialGradient
       inkscape:collect="always"
       xlink:href="#linearGradient8650"
       id="radialGradient3096"
       gradientUnits="userSpaceOnUse"
       gradientTransform="matrix(0,-2.046729,-1.55761,0,44.11559,66.93275)"
       cx="15.987216"
       cy="1.5350308"
       fx="15.987216"
       fy="1.5350308"
       r="17.171415" />
    <linearGradient
       inkscape:collect="always"
       xlink:href="#linearGradient1502"
       id="linearGradient3061"
       x1="179.83598"
       y1="178.66379"
       x2="200.25706"
       y2="302.00961"
       gradientTransform="scale(1.0307764,0.97014252)"
       gradientUnits="userSpaceOnUse" />
    <linearGradient
       inkscape:collect="always"
       xlink:href="#linearGradient1502"
       id="linearGradient3063"
       x1="178.64995"
       y1="179.87529"
       x2="198.41254"
       y2="299.24384"
       gradientTransform="scale(1.0344279,0.96671791)"
       gradientUnits="userSpaceOnUse" />
    <linearGradient
       inkscape:collect="always"
       xlink:href="#linearGradient1502"
       id="linearGradient3065"
       x1="181.35893"
       y1="177.20132"
       x2="202.65994"
       y2="305.862"
       gradientTransform="scale(1.0266786,0.97401464)"
       gradientUnits="userSpaceOnUse" />
    <linearGradient
       inkscape:collect="always"
       xlink:href="#linearGradient1502"
       id="linearGradient3067"
       x1="182.83167"
       y1="175.80452"
       x2="205.01575"
       y2="309.7991"
       gradientTransform="scale(1.0229615,0.97755389)"
       gradientUnits="userSpaceOnUse" />
    <linearGradient
       inkscape:collect="always"
       xlink:href="#linearGradient1502"
       id="linearGradient3069"
       x1="177.86378"
       y1="181.4277"
       x2="197.19272"
       y2="298.17694"
       gradientTransform="scale(1.0368908,0.96442174)"
       gradientUnits="userSpaceOnUse" />
  </defs>
  <sodipodi:namedview
     bordercolor="#666666"
     borderopacity="1.0"
     id="base"
     inkscape:cx="27.559512"
     inkscape:cy="-0.56646454"
     inkscape:pageopacity="0.0"
     inkscape:pageshadow="2"
     inkscape:window-height="1003"
     inkscape:window-width="1280"
     inkscape:window-x="0"
     inkscape:window-y="21"
     inkscape:zoom="4"
     pagecolor="#ffffff"
     showborder="true"
     showgrid="false"
     inkscape:window-maximized="1"
     inkscape:current-layer="svg1428"
     fit-margin-top="3"
     fit-margin-left="1"
     fit-margin-bottom="1"
     fit-margin-right="1" />
  <g
     id="g3417"
     transform="matrix(0.24358068,0,0,0.24358068,7.3913612,32.55171)">
    <g
       transform="matrix(1.084455,0,0,1.043417,-109.78386,-213.39776)"
       style="fill:url(#linearGradient1507)"
       id="g1583">
      <path
         inkscape:connector-curvature="0"
         style="fill:url(#linearGradient3061);fill-opacity:1;fill-rule:evenodd;stroke-width:1pt"
         id="path1557"
         d="m 187.3221,244.31589 34.25383,-85.18386 0,-10.817 -73.46544,-12.16912 -41.46516,80.22606 0.90142,10.36629 79.77535,17.57763 z" />
      <path
         inkscape:connector-curvature="0"
         style="fill:url(#linearGradient3063);fill-opacity:1;fill-rule:evenodd;stroke-width:1pt"
         id="path1562"
         d="m 108.34375,216.71875 c 0.72103,2.87033 -0.69789,8.43124 2.87454,9.09037 25.02098,5.51154 50.04197,11.02309 75.06296,16.53463 11.19792,-27.89583 22.39583,-55.79167 33.59375,-83.6875 -0.15593,-2.83108 0.7119,-7.01428 -0.9743,-9.0318 -23.2794,-3.8644 -46.5588,-7.7288 -69.8382,-11.5932 -13.57292,26.22917 -27.14583,52.45833 -40.71875,78.6875 z" />
      <path
         inkscape:connector-curvature="0"
         style="fill:url(#linearGradient3065);fill-opacity:1;fill-rule:evenodd;stroke-width:1pt"
         id="path1567"
         d="m 146.6875,134.03125 c -14.05849,27.51462 -28.35222,55.01917 -42.28125,82.53125 0.49896,4.07347 -0.12248,8.95914 2.21875,12.34375 27.35479,6.00744 54.7046,12.03864 82.0625,18.03125 11.712,-29.26578 23.51718,-58.52116 35.125,-87.8125 0,-4.27083 0,-8.54167 0,-12.8125 -25.65035,-4.18856 -51.28958,-8.45093 -76.9375,-12.65625 l -0.1875,0.375 z" />
      <path
         inkscape:connector-curvature="0"
         style="fill:url(#linearGradient3067);fill-opacity:1;fill-rule:evenodd;stroke-width:1pt"
         id="path1576"
         d="m 145.4375,131.53125 c -14.39455,28.38822 -29.01667,56.77031 -43.28125,85.15625 0.48682,4.95066 0.042,10.80189 3.96875,14.46875 27.97978,6.13251 55.95469,12.28823 83.9375,18.40625 12.00532,-30.14012 24.09952,-60.27155 36,-90.4375 0,-4.9375 0,-9.875 0,-14.8125 -26.81685,-4.35623 -53.62306,-8.78336 -80.4375,-13.15625 l -0.1875,0.375 z" />
      <path
         inkscape:connector-curvature="0"
         style="fill:url(#linearGradient3069);fill-opacity:1;fill-rule:evenodd;stroke-width:1pt"
         id="path1582"
         d="m 109.46821,217.57928 c 0.31941,3.11898 -0.13182,8.49828 4.37478,8.34292 23.91675,5.28152 47.83348,10.56305 71.75022,15.84458 11.05208,-27.5625 22.10417,-55.125 33.15625,-82.6875 0.0414,-2.97207 1.15495,-8.4234 -3.42825,-8.15974 -21.87809,-3.64467 -43.75617,-7.28934 -65.63425,-10.93401 -13.40625,25.86458 -26.8125,51.72917 -40.21875,77.59375 z" />
    </g>
    <path
       inkscape:connector-curvature="0"
       style="fill:#525252;fill-rule:evenodd;stroke-width:1pt"
       id="path1432"
       d="m 92.138721,40.813046 37.146729,-92.378051 0,-11.730549 -79.669967,-13.196863 -44.9670972,87.001553 0.977545,11.24177 86.5127902,19.06214 z" />
    <path
       inkscape:connector-curvature="0"
       style="fill:url(#linearGradient1458);fill-rule:evenodd;stroke-width:1pt"
       sodipodi:nodetypes="ccccc"
       id="path1433"
       d="M 5.5962828,10.163516 91.649951,29.571276 128.79668,-62.318005 49.982065,-75.637066 5.5962828,10.163516 Z" />
    <path
       inkscape:connector-curvature="0"
       style="fill:url(#linearGradient1471);fill-opacity:1;fill-rule:evenodd;stroke-width:1pt"
       sodipodi:nodetypes="cccccccccccczc"
       id="path1470"
       d="m 32.508435,-26.148818 -7.820365,2.932636 -12.708092,24.9274177 5.865274,10.2642203 34.214094,7.82036 5.865276,-2.93263 3.91018,1.46632 1.734121,4.00385 21.994777,4.88772 9.996431,-9.86912 10.752999,-26.3937303 -7.331589,0 c -2.44387,0 -18.736295,10.18277 -38.124283,5.37651 C 40.980496,-8.4715343 34.626453,-22.890334 32.508435,-26.148818 Z" />
    <path
       inkscape:connector-curvature="0"
       style="fill:url(#linearGradient1555);fill-rule:evenodd;stroke:url(#linearGradient1468);stroke-width:0.89126021"
       sodipodi:nodetypes="czzzz"
       id="path1439"
       d="m 93.226101,-61.062683 c -19.181604,-4.723397 -48.73165,-0.230407 -57.372015,20.045646 -8.640365,19.584826 12.269316,35.0222727 26.266707,37.6719827 15.034235,2.64972001 40.782517,-2.88012 49.422877,-19.7000257 8.98598,-16.819909 1.20966,-33.294203 -18.317569,-38.017603 z" />
    <path
       inkscape:connector-curvature="0"
       style="fill:url(#linearGradient1550);fill-opacity:1;fill-rule:evenodd;stroke-width:1pt"
       sodipodi:nodetypes="ccccccccc"
       id="path1554"
       d="m 98.969361,5.0677257 -5.07372,0 C 72.039607,17.556886 35.742974,6.2385857 28.327533,-11.324304 l -8.196014,0.39029 3.122291,-7.80573 7.415442,-1.951432 c 6.244581,14.9609817 32.784055,31.483102 65.568109,16.7823117 l 7.025149,-0.39028 -4.293149,9.36687 z" />
    <path
       inkscape:connector-curvature="0"
       style="fill-opacity:0.24999994;fill-rule:evenodd;stroke:url(#linearGradient1467);stroke-width:0.72149634"
       sodipodi:nodetypes="czzzz"
       id="path1438"
       d="m 93.470491,-63.214748 c -19.181606,-4.723396 -48.73165,-0.230406 -57.372015,20.045647 -8.640365,19.584826 12.269314,35.0222767 26.266706,37.6719867 15.034234,2.64971 40.782518,-2.88012 49.422878,-19.7000297 8.98598,-16.819909 1.20965,-33.294202 -18.317569,-38.017604 z" />
    <path
       inkscape:connector-curvature="0"
       style="fill:url(#linearGradient1465);fill-rule:evenodd;stroke:url(#linearGradient1466);stroke-width:1.01858306"
       sodipodi:nodetypes="czzzz"
       id="path1437"
       d="m 94.025361,-66.194777 c -19.18161,-4.723397 -48.731655,-0.230406 -57.37202,20.045647 -8.640364,19.584825 12.269315,35.022276 26.266708,37.6719857 15.034234,2.64971 40.782511,-2.8801197 49.422891,-19.7000287 8.98596,-16.819909 1.20964,-33.294204 -18.317579,-38.017604 z" />
    <path
       inkscape:connector-curvature="0"
       style="fill-opacity:0.45833333;fill-rule:evenodd;stroke-width:1pt"
       sodipodi:nodetypes="czzzz"
       id="path1435"
       d="m 74.357829,-51.462847 c -8.894498,0.790312 -13.659443,7.547048 -13.331931,12.056964 0.277448,3.820501 2.482694,11.919193 14.996612,10.86604 12.341563,-1.040639 14.22369,-9.320646 13.551469,-13.805529 -0.277445,-3.8205 -6.85123,-10.042587 -15.21615,-9.117475 z" />
    <path
       inkscape:connector-curvature="0"
       style="fill:url(#linearGradient1469);fill-rule:evenodd;stroke-width:1pt"
       sodipodi:nodetypes="czzzz"
       id="path1436"
       d="m 74.351398,-51.371226 c -8.894494,0.790312 -13.659442,7.547049 -13.331927,12.056965 0.277445,3.820501 5.939402,9.415751 14.981218,8.268222 9.05433,-0.975178 14.239084,-6.722829 13.566863,-11.20771 -0.277449,-3.820502 -6.851234,-10.042587 -15.216154,-9.117477 z" />
    <path
       inkscape:connector-curvature="0"
       style="fill:url(#linearGradient1460);fill-rule:evenodd;stroke:none"
       sodipodi:nodetypes="cccccccccc"
       id="path1440"
       d="m 33.594142,-22.442978 -9.042298,7.820364 c -6.235735,5.6098397 -0.531988,18.5568797 5.620887,22.4835497 l 0.244387,5.6208803 4.643342,1.22194 2.688248,-4.15457 11.974934,2.68825 5.132117,-12.2193203 c -18.206788,3.46214 -23.949868,-9.69399 -14.052218,-14.6631797 -3.625067,-2.68826 -5.783811,-5.3765 -7.209399,-8.797914 z" />
    <path
       inkscape:connector-curvature="0"
       style="fill-opacity:0.30208333;fill-rule:evenodd;stroke-width:1pt"
       sodipodi:nodetypes="czzzccz"
       id="path1434"
       d="m 52.445362,-14.179784 c -3.036373,1.43969 -7.483914,0.23041 -10.019782,2.4193 -2.683769,2.3616997 -4.603968,6.6242797 0.827936,10.5412497 5.629613,4.08977 10.700428,1.81218001 14.908188,-2.07369 L 84.545863,-27.658752 81.23762,-27.831557 52.445362,-14.179784 Z" />
    <path
       inkscape:connector-curvature="0"
       style="fill:#fff8d2;fill-opacity:0.54166667;fill-rule:evenodd;stroke-width:1pt"
       sodipodi:nodetypes="czzzz"
       id="path1441"
       d="m 75.383141,-45.580092 c -2.311086,-0.03579 -6.523901,0.996609 -6.566678,4.147375 0.07941,3.150766 4.976467,4.823778 7.776327,4.492986 2.92205,-0.330792 5.558636,-1.982842 5.357028,-5.011411 -0.201609,-2.906381 -4.377786,-3.593161 -6.566677,-3.62895 z" />
    <path
       inkscape:connector-curvature="0"
       style="fill:url(#linearGradient1500);fill-rule:evenodd;stroke-width:1pt"
       sodipodi:nodetypes="czzzccz"
       id="path1499"
       d="m 51.411302,-15.089864 c -3.243854,1.43969 -7.517118,0.23041 -10.368438,2.4193 -3.024129,2.3617 -5.558631,6.6242797 -0.691227,10.5412397 5.040214,4.08977 10.439267,1.81219001 15.20704,-2.07368 l 29.89566,-24.3658277 -3.283338,-0.172807 -30.759697,13.651775 z" />
    <path
       inkscape:connector-curvature="0"
       style="fill:url(#linearGradient1501);fill-opacity:1;fill-rule:evenodd;stroke-width:1pt"
       id="path1508"
       d="m 77.352107,-48.480016 c -0.967634,0 -1.75069,0.531742 -1.75069,1.188347 0,0.656606 0.783056,1.188352 1.75069,1.188347 0.967633,0 1.750693,-0.531741 1.750689,-1.188347 0,-0.656605 -0.783053,-1.188342 -1.750689,-1.188347 z m -7.883409,1.411163 c -0.967633,0 -1.750689,0.531737 -1.750689,1.188347 0,0.656606 0.783056,1.188346 1.750689,1.188346 0.967635,0 1.761304,-0.53174 1.761301,-1.188346 0,-0.656606 -0.793666,-1.188347 -1.761301,-1.188347 z m 15.098372,2.620729 c -0.967633,0 -1.761299,0.531741 -1.761299,1.188347 0,0.656605 0.793669,1.188343 1.761299,1.188347 0.967634,0 1.750693,-0.531742 1.75069,-1.188347 0,-0.656606 -0.783053,-1.188351 -1.75069,-1.188347 z m -17.846424,3.183072 c -0.967633,0 -1.750689,0.531741 -1.750689,1.188347 0,0.656606 0.783059,1.18835 1.750689,1.188347 0.967634,0 1.75069,-0.531741 1.75069,-1.188347 0,-0.656606 -0.783053,-1.188344 -1.75069,-1.188347 z m 14.419316,3.54382 c -0.967633,0 -1.750689,0.531741 -1.750689,1.188347 0,0.656606 0.783056,1.18835 1.750689,1.188347 0.967634,0 1.750693,-0.531741 1.75069,-1.188347 0,-0.656606 -0.783052,-1.188344 -1.75069,-1.188347 z m -8.180494,1.580926 c -0.967634,0 -1.761297,0.531741 -1.7613,1.188347 0,0.656605 0.793659,1.198961 1.7613,1.198957 0.967633,0 1.750685,-0.542352 1.750689,-1.198957 0,-0.656606 -0.783059,-1.188343 -1.750689,-1.188347 z" />
    <path
       inkscape:connector-curvature="0"
       style="fill:url(#linearGradient1457);fill-opacity:1;fill-rule:evenodd;stroke-width:1pt"
       id="path1589"
       d="m 5.7343808,11.929036 0.625,8.75 69.6875002,15.3125 -70.3125002,-24.0625 z" />
    <g
       transform="matrix(2.4414749,0,0,2.4414749,-54.724437,-60.942691)"
       id="g3085">
      <ellipse
         ry="8.3968935"
         rx="15.644737"
         cy="36.421127"
         cx="24.837126"
         transform="matrix(1.214466,0,0,0.595458,17.919415,-11.735623)"
         id="path8660"
         style="color:#000000;display:inline;overflow:visible;visibility:visible;opacity:0.20454544;fill:url(#radialGradient3092);fill-opacity:1;fill-rule:evenodd;stroke:none;stroke-width:1;marker:none" />
      <g
         id="g1464"
         transform="matrix(-1,0,0,-1,71.111821,15.950837)">
        <path
           inkscape:connector-curvature="0"
           style="color:#000000;display:inline;overflow:visible;visibility:visible;fill:url(#radialGradient3094);fill-opacity:1;fill-rule:evenodd;stroke:#3a7304;stroke-width:1.00000036;stroke-linecap:round;stroke-linejoin:round;stroke-miterlimit:10;stroke-dasharray:none;stroke-dashoffset:0;stroke-opacity:1;marker:none"
           d="m 14.519136,38.5 18.005029,-0.0039 0,-12.991626 7.995366,-0.0078 L 23.374809,5.4992135 6.5285585,25.497284 14.52444,25.501074 14.519136,38.5 Z"
           id="path8643"
           sodipodi:nodetypes="cccccccc" />
        <path
           inkscape:connector-curvature="0"
           style="color:#000000;display:inline;overflow:visible;visibility:visible;opacity:0.5080214;fill:url(#radialGradient3096);fill-opacity:1;fill-rule:evenodd;stroke:none;stroke-width:1;marker:none"
           d="m 39.429889,24.993467 -7.406391,0.01172 0.0027,12.992837 -15.378556,-0.0092 C 17.417545,19.64788 27.370272,26.995797 32.029282,16.341991 l 7.400607,8.651476 z"
           id="path8645"
           sodipodi:nodetypes="cccccc" />
        <path
           inkscape:connector-curvature="0"
           sodipodi:nodetypes="cccccccc"
           id="path8658"
           d="m 15.520704,37.496094 16.001405,0.0039 0,-12.99295 6.816811,-0.01563 L 23.384644,7.0388396 8.6781173,24.495782 l 6.8399007,0.0052 0.0027,12.995065 z"
           style="color:#000000;display:inline;overflow:visible;visibility:visible;opacity:0.48128339;fill:none;stroke:#ffffff;stroke-width:1.00000036;stroke-linecap:butt;stroke-linejoin:miter;stroke-miterlimit:10;stroke-dasharray:none;stroke-dashoffset:0;stroke-opacity:1;marker:none" />
      </g>
    </g>
  </g>
</svg>
